<mxfile host="65bd71144e">
    <diagram id="system-architecture" name="QTrader System Architecture">
        <mxGraphModel dx="1946" dy="1334" grid="1" gridSize="10" guides="1" tooltips="1" connect="1" arrows="1" fold="1" page="1" pageScale="1" pageWidth="1600" pageHeight="1200" math="0" shadow="0">
            <root>
                <mxCell id="0"/>
                <mxCell id="1" parent="0"/>
                <mxCell id="title" value="QTrader System Architecture" style="text;html=1;strokeColor=none;fillColor=none;align=center;verticalAlign=middle;whiteSpace=wrap;rounded=0;fontSize=28;fontStyle=1" parent="1" vertex="1">
                    <mxGeometry x="600" y="20" width="400" height="40" as="geometry"/>
                </mxCell>
                <mxCell id="layer1-container" value="External Resources (Direct Import / Load)" style="swimlane;horizontal=0;whiteSpace=wrap;html=1;fillColor=#FFF4E1;strokeColor=#D6B656;fontSize=14;fontStyle=1;startSize=40;" parent="1" vertex="1">
                    <mxGeometry x="40" y="80" width="1520" height="240" as="geometry"/>
                </mxCell>
                <mxCell id="builtin-container" value="Built-in Libraries&#xa;(qtrader.*)&#xa;Part of codebase" style="swimlane;whiteSpace=wrap;html=1;fillColor=#E1F5FE;strokeColor=#0277BD;fontSize=11;fontStyle=1;startSize=60;" parent="layer1-container" vertex="1">
                    <mxGeometry x="60" y="20" width="340" height="200" as="geometry"/>
                </mxCell>
                <mxCell id="builtin-indicators" value="Indicators&#xa;qtrader.indicators.*&#xa;&#xa;• SMA, EMA&#xa;• RSI, MACD&#xa;• Bollinger Bands" style="rounded=1;whiteSpace=wrap;html=1;fillColor=#BBDEFB;strokeColor=#0277BD;fontSize=10;" parent="builtin-container" vertex="1">
                    <mxGeometry x="20" y="80" width="140" height="100" as="geometry"/>
                </mxCell>
                <mxCell id="builtin-metrics" value="Metrics&#xa;qtrader.metrics.*&#xa;&#xa;• Sharpe Ratio&#xa;• Max Drawdown&#xa;• Win Rate" style="rounded=1;whiteSpace=wrap;html=1;fillColor=#BBDEFB;strokeColor=#0277BD;fontSize=10;" parent="builtin-container" vertex="1">
                    <mxGeometry x="180" y="80" width="140" height="100" as="geometry"/>
                </mxCell>
                <mxCell id="custom-container" value="Custom Libraries&#xa;(User-provided)&#xa;Follows ABC interface" style="swimlane;whiteSpace=wrap;html=1;fillColor=#F3E5F5;strokeColor=#7B1FA2;fontSize=11;fontStyle=1;startSize=60;" parent="layer1-container" vertex="1">
                    <mxGeometry x="420" y="20" width="340" height="200" as="geometry"/>
                </mxCell>
                <mxCell id="custom-indicators" value="Custom Indicators&#xa;user_indicators.py&#xa;&#xa;• MyCustomIndicator&#xa;• ProprietarySignal&#xa;• Implements ABC" style="rounded=1;whiteSpace=wrap;html=1;fillColor=#E1BEE7;strokeColor=#7B1FA2;fontSize=10;dashed=1;dashPattern=4 4;" parent="custom-container" vertex="1">
                    <mxGeometry x="20" y="80" width="140" height="100" as="geometry"/>
                </mxCell>
                <mxCell id="custom-metrics" value="Custom Metrics&#xa;user_metrics.py&#xa;&#xa;• MyCustomMetric&#xa;• ProprietaryRatio&#xa;• Implements ABC" style="rounded=1;whiteSpace=wrap;html=1;fillColor=#E1BEE7;strokeColor=#7B1FA2;fontSize=10;dashed=1;dashPattern=4 4;" parent="custom-container" vertex="1">
                    <mxGeometry x="180" y="80" width="140" height="100" as="geometry"/>
                </mxCell>
                <mxCell id="abc-container" value="Abstract Base Classes&#xa;(Contracts)" style="swimlane;whiteSpace=wrap;html=1;fillColor=#FFF9C4;strokeColor=#F57F17;fontSize=11;fontStyle=1;startSize=50;" parent="layer1-container" vertex="1">
                    <mxGeometry x="780" y="20" width="200" height="200" as="geometry"/>
                </mxCell>
                <mxCell id="abc-indicator" value="BaseIndicator&#xa;ABC&#xa;&#xa;calculate()&#xa;update()" style="rounded=0;whiteSpace=wrap;html=1;fillColor=#FFF59D;strokeColor=#F57F17;fontSize=10;fontStyle=2;" parent="abc-container" vertex="1">
                    <mxGeometry x="30" y="70" width="140" height="50" as="geometry"/>
                </mxCell>
                <mxCell id="abc-metric" value="BaseMetric&#xa;ABC&#xa;&#xa;compute()" style="rounded=0;whiteSpace=wrap;html=1;fillColor=#FFF59D;strokeColor=#F57F17;fontSize=10;fontStyle=2;" parent="abc-container" vertex="1">
                    <mxGeometry x="30" y="130" width="140" height="50" as="geometry"/>
                </mxCell>
                <mxCell id="datasources-container" value="Data Sources" style="swimlane;whiteSpace=wrap;html=1;fillColor=#E8F5E9;strokeColor=#2E7D32;fontSize=11;fontStyle=1;" parent="layer1-container" vertex="1">
                    <mxGeometry x="1000" y="20" width="240" height="200" as="geometry"/>
                </mxCell>
                <mxCell id="ds-algoseek" value="Algoseek" style="rounded=1;whiteSpace=wrap;html=1;fillColor=#C8E6C9;strokeColor=#2E7D32;fontSize=10;" parent="datasources-container" vertex="1">
                    <mxGeometry x="20" y="40" width="90" height="30" as="geometry"/>
                </mxCell>
                <mxCell id="ds-csv" value="CSV Files" style="rounded=1;whiteSpace=wrap;html=1;fillColor=#C8E6C9;strokeColor=#2E7D32;fontSize=10;" parent="datasources-container" vertex="1">
                    <mxGeometry x="130" y="40" width="90" height="30" as="geometry"/>
                </mxCell>
                <mxCell id="ds-api" value="APIs" style="rounded=1;whiteSpace=wrap;html=1;fillColor=#C8E6C9;strokeColor=#2E7D32;fontSize=10;" parent="datasources-container" vertex="1">
                    <mxGeometry x="20" y="80" width="90" height="30" as="geometry"/>
                </mxCell>
                <mxCell id="ds-other" value="Other Sources" style="rounded=1;whiteSpace=wrap;html=1;fillColor=#C8E6C9;strokeColor=#2E7D32;fontSize=10;" parent="datasources-container" vertex="1">
                    <mxGeometry x="130" y="80" width="90" height="30" as="geometry"/>
                </mxCell>
                <mxCell id="config-container" value="Configuration" style="swimlane;whiteSpace=wrap;html=1;fillColor=#FCE4EC;strokeColor=#C2185B;fontSize=11;fontStyle=1;" parent="layer1-container" vertex="1">
                    <mxGeometry x="1260" y="20" width="220" height="200" as="geometry"/>
                </mxCell>
                <mxCell id="config-system" value="system.yaml&#xa;&#xa;Execution, Logging,&#xa;Ledger settings" style="rounded=1;whiteSpace=wrap;html=1;fillColor=#F8BBD0;strokeColor=#C2185B;fontSize=10;" parent="config-container" vertex="1">
                    <mxGeometry x="20" y="40" width="180" height="60" as="geometry"/>
                </mxCell>
                <mxCell id="config-backtest" value="backtest.yaml&#xa;&#xa;Portfolio, Risk,&#xa;Strategy settings" style="rounded=1;whiteSpace=wrap;html=1;fillColor=#F8BBD0;strokeColor=#C2185B;fontSize=10;" parent="config-container" vertex="1">
                    <mxGeometry x="20" y="120" width="180" height="60" as="geometry"/>
                </mxCell>
                <mxCell id="layer2-container" value="Core Services (Event-Driven Communication)" style="swimlane;horizontal=0;whiteSpace=wrap;html=1;fillColor=#E3F2FD;strokeColor=#1976D2;fontSize=14;fontStyle=1;startSize=40;" parent="1" vertex="1">
                    <mxGeometry x="40" y="427" width="1520" height="180" as="geometry"/>
                </mxCell>
                <mxCell id="service-data" value="Data Service&#xa;&#xa;Stream market data&#xa;from sources" style="rounded=1;whiteSpace=wrap;html=1;fillColor=#BBDEFB;strokeColor=#1976D2;fontSize=11;fontStyle=1;" parent="layer2-container" vertex="1">
                    <mxGeometry x="80" y="40" width="180" height="120" as="geometry"/>
                </mxCell>
                <mxCell id="service-strategy" value="Strategy Service&#xa;&#xa;Load strategies&#xa;Generate signals" style="rounded=1;whiteSpace=wrap;html=1;fillColor=#BBDEFB;strokeColor=#1976D2;fontSize=11;fontStyle=1;" parent="layer2-container" vertex="1">
                    <mxGeometry x="300" y="40" width="180" height="120" as="geometry"/>
                </mxCell>
                <mxCell id="service-portfolio" value="Portfolio Manager&#xa;(RiskService)&#xa;&#xa;Risk policies&#xa;Position sizing&#xa;Order approval" style="rounded=1;whiteSpace=wrap;html=1;fillColor=#BBDEFB;strokeColor=#1976D2;fontSize=11;fontStyle=1;" parent="layer2-container" vertex="1">
                    <mxGeometry x="520" y="40" width="180" height="120" as="geometry"/>
                </mxCell>
                <mxCell id="service-ledger" value="Ledger Service&#xa;(PortfolioService)&#xa;&#xa;Position tracking&#xa;Accounting&#xa;Snapshots" style="rounded=1;whiteSpace=wrap;html=1;fillColor=#BBDEFB;strokeColor=#1976D2;fontSize=11;fontStyle=1;" parent="layer2-container" vertex="1">
                    <mxGeometry x="740" y="40" width="180" height="120" as="geometry"/>
                </mxCell>
                <mxCell id="service-execution" value="Execution Service&#xa;&#xa;Simulate fills&#xa;Slippage/Commission" style="rounded=1;whiteSpace=wrap;html=1;fillColor=#BBDEFB;strokeColor=#1976D2;fontSize=11;fontStyle=1;" parent="layer2-container" vertex="1">
                    <mxGeometry x="960" y="40" width="180" height="120" as="geometry"/>
                </mxCell>
                <mxCell id="service-reporting" value="Reporting Service&#xa;&#xa;Calculate metrics&#xa;Generate reports" style="rounded=1;whiteSpace=wrap;html=1;fillColor=#BBDEFB;strokeColor=#1976D2;fontSize=11;fontStyle=1;" parent="layer2-container" vertex="1">
                    <mxGeometry x="1180" y="40" width="180" height="120" as="geometry"/>
                </mxCell>
                <mxCell id="layer3-container" value="Event Bus (Runtime Events)" style="swimlane;horizontal=0;whiteSpace=wrap;html=1;fillColor=#E8F5E9;strokeColor=#388E3C;fontSize=14;fontStyle=1;startSize=40;" parent="1" vertex="1">
                    <mxGeometry x="40" y="740" width="1520" height="270" as="geometry"/>
                </mxCell>
                <mxCell id="eventbus" value="" style="rounded=0;whiteSpace=wrap;html=1;fillColor=#C8E6C9;strokeColor=#388E3C;fontSize=11;align=left;verticalAlign=top;" parent="layer3-container" vertex="1">
                    <mxGeometry x="80" y="20" width="1360" height="140" as="geometry"/>
                </mxCell>
                <mxCell id="2" value="Data Sources" style="swimlane;whiteSpace=wrap;html=1;fillColor=#E8F5E9;strokeColor=#2E7D32;fontSize=11;fontStyle=1;" vertex="1" parent="layer3-container">
                    <mxGeometry x="150" y="70" width="240" height="200" as="geometry"/>
                </mxCell>
                <mxCell id="3" value="Algoseek" style="rounded=1;whiteSpace=wrap;html=1;fillColor=#C8E6C9;strokeColor=#2E7D32;fontSize=10;" vertex="1" parent="2">
                    <mxGeometry x="20" y="40" width="90" height="30" as="geometry"/>
                </mxCell>
                <mxCell id="4" value="CSV Files" style="rounded=1;whiteSpace=wrap;html=1;fillColor=#C8E6C9;strokeColor=#2E7D32;fontSize=10;" vertex="1" parent="2">
                    <mxGeometry x="130" y="40" width="90" height="30" as="geometry"/>
                </mxCell>
                <mxCell id="5" value="APIs" style="rounded=1;whiteSpace=wrap;html=1;fillColor=#C8E6C9;strokeColor=#2E7D32;fontSize=10;" vertex="1" parent="2">
                    <mxGeometry x="20" y="80" width="90" height="30" as="geometry"/>
                </mxCell>
                <mxCell id="6" value="Other Sources" style="rounded=1;whiteSpace=wrap;html=1;fillColor=#C8E6C9;strokeColor=#2E7D32;fontSize=10;" vertex="1" parent="2">
                    <mxGeometry x="130" y="80" width="90" height="30" as="geometry"/>
                </mxCell>
                <mxCell id="layer4-container" value="Outputs (Direct Write)" style="swimlane;horizontal=0;whiteSpace=wrap;html=1;fillColor=#F5F5F5;strokeColor=#616161;fontSize=14;fontStyle=1;startSize=40;" parent="1" vertex="1">
                    <mxGeometry x="40" y="940" width="1520" height="120" as="geometry"/>
                </mxCell>
                <mxCell id="output-console" value="Console Output&#xa;&#xa;Real-time progress&#xa;Summary stats" style="rounded=1;whiteSpace=wrap;html=1;fillColor=#E0E0E0;strokeColor=#616161;fontSize=11;" parent="layer4-container" vertex="1">
                    <mxGeometry x="520" y="30" width="220" height="70" as="geometry"/>
                </mxCell>
                <mxCell id="output-json" value="JSON Reports&#xa;&#xa;Detailed results&#xa;Trade history" style="rounded=1;whiteSpace=wrap;html=1;fillColor=#E0E0E0;strokeColor=#616161;fontSize=11;" parent="layer4-container" vertex="1">
                    <mxGeometry x="780" y="30" width="220" height="70" as="geometry"/>
                </mxCell>
                <mxCell id="legend-container" value="Legend" style="swimlane;whiteSpace=wrap;html=1;fillColor=#FFFFFF;strokeColor=#000000;fontSize=12;fontStyle=1;" parent="1" vertex="1">
                    <mxGeometry x="40" y="1080" width="400" height="140" as="geometry"/>
                </mxCell>
                <mxCell id="legend-direct" value="" style="endArrow=classic;html=1;strokeColor=#757575;strokeWidth=2;dashed=1;dashPattern=8 8;" parent="legend-container" edge="1">
                    <mxGeometry width="50" height="50" relative="1" as="geometry">
                        <mxPoint x="20" y="40" as="sourcePoint"/>
                        <mxPoint x="120" y="40" as="targetPoint"/>
                    </mxGeometry>
                </mxCell>
                <mxCell id="legend-direct-label" value="Direct Import/Load" style="text;html=1;strokeColor=none;fillColor=none;align=left;verticalAlign=middle;whiteSpace=wrap;rounded=0;fontSize=10;" parent="legend-container" vertex="1">
                    <mxGeometry x="130" y="30" width="120" height="20" as="geometry"/>
                </mxCell>
                <mxCell id="legend-event" value="" style="endArrow=classic;html=1;strokeColor=#388E3C;strokeWidth=2;" parent="legend-container" edge="1">
                    <mxGeometry width="50" height="50" relative="1" as="geometry">
                        <mxPoint x="20" y="70" as="sourcePoint"/>
                        <mxPoint x="120" y="70" as="targetPoint"/>
                    </mxGeometry>
                </mxCell>
                <mxCell id="legend-event-label" value="Event Bus (Runtime)" style="text;html=1;strokeColor=none;fillColor=none;align=left;verticalAlign=middle;whiteSpace=wrap;rounded=0;fontSize=10;" parent="legend-container" vertex="1">
                    <mxGeometry x="130" y="60" width="120" height="20" as="geometry"/>
                </mxCell>
                <mxCell id="legend-builtin" value="" style="rounded=1;whiteSpace=wrap;html=1;fillColor=#BBDEFB;strokeColor=#0277BD;fontSize=10;" parent="legend-container" vertex="1">
                    <mxGeometry x="20" y="100" width="100" height="20" as="geometry"/>
                </mxCell>
                <mxCell id="legend-builtin-label" value="Built-in (codebase)" style="text;html=1;strokeColor=none;fillColor=none;align=left;verticalAlign=middle;whiteSpace=wrap;rounded=0;fontSize=10;" parent="legend-container" vertex="1">
                    <mxGeometry x="130" y="95" width="120" height="20" as="geometry"/>
                </mxCell>
                <mxCell id="legend-custom" value="" style="rounded=1;whiteSpace=wrap;html=1;fillColor=#E1BEE7;strokeColor=#7B1FA2;fontSize=10;dashed=1;dashPattern=4 4;" parent="legend-container" vertex="1">
                    <mxGeometry x="270" y="100" width="100" height="20" as="geometry"/>
                </mxCell>
                <mxCell id="legend-custom-label" value="Custom (user)" style="text;html=1;strokeColor=none;fillColor=none;align=left;verticalAlign=middle;whiteSpace=wrap;rounded=0;fontSize=10;" parent="legend-container" vertex="1">
                    <mxGeometry x="270" y="75" width="100" height="20" as="geometry"/>
                </mxCell>
                <mxCell id="conn-indicators-strategy" value="Direct Import" style="endArrow=classic;html=1;strokeColor=#757575;strokeWidth=2;dashed=1;dashPattern=8 8;entryX=0.25;entryY=0;entryDx=0;entryDy=0;exitX=0.5;exitY=1;exitDx=0;exitDy=0;fontSize=9;" parent="1" source="builtin-indicators" target="service-strategy" edge="1">
                    <mxGeometry width="50" height="50" relative="1" as="geometry">
                        <mxPoint x="180" y="270" as="sourcePoint"/>
                        <mxPoint x="360" y="340" as="targetPoint"/>
                    </mxGeometry>
                </mxCell>
                <mxCell id="conn-custom-indicators-strategy" value="Direct Import" style="endArrow=classic;html=1;strokeColor=#757575;strokeWidth=2;dashed=1;dashPattern=8 8;entryX=0.75;entryY=0;entryDx=0;entryDy=0;exitX=0.5;exitY=1;exitDx=0;exitDy=0;fontSize=9;" parent="1" source="custom-indicators" target="service-strategy" edge="1">
                    <mxGeometry width="50" height="50" relative="1" as="geometry">
                        <mxPoint x="540" y="270" as="sourcePoint"/>
                        <mxPoint x="420" y="340" as="targetPoint"/>
                    </mxGeometry>
                </mxCell>
                <mxCell id="conn-metrics-reporting" value="Direct Import" style="endArrow=classic;html=1;strokeColor=#757575;strokeWidth=2;dashed=1;dashPattern=8 8;entryX=0.25;entryY=0;entryDx=0;entryDy=0;exitX=0.5;exitY=1;exitDx=0;exitDy=0;fontSize=9;" parent="1" source="builtin-metrics" target="service-reporting" edge="1">
                    <mxGeometry width="50" height="50" relative="1" as="geometry">
                        <mxPoint x="300" y="270" as="sourcePoint"/>
                        <mxPoint x="1220" y="340" as="targetPoint"/>
                    </mxGeometry>
                </mxCell>
                <mxCell id="conn-custom-metrics-reporting" value="Direct Import" style="endArrow=classic;html=1;strokeColor=#757575;strokeWidth=2;dashed=1;dashPattern=8 8;entryX=0.75;entryY=0;entryDx=0;entryDy=0;exitX=0.5;exitY=1;exitDx=0;exitDy=0;fontSize=9;" parent="1" source="custom-metrics" target="service-reporting" edge="1">
                    <mxGeometry width="50" height="50" relative="1" as="geometry">
                        <mxPoint x="720" y="270" as="sourcePoint"/>
                        <mxPoint x="1340" y="340" as="targetPoint"/>
                    </mxGeometry>
                </mxCell>
                <mxCell id="conn-datasources-data" value="Direct Access" style="endArrow=classic;html=1;strokeColor=#757575;strokeWidth=2;dashed=1;dashPattern=8 8;entryX=0.5;entryY=0;entryDx=0;entryDy=0;exitX=0.5;exitY=1;exitDx=0;exitDy=0;fontSize=9;" parent="1" source="datasources-container" target="service-data" edge="1">
                    <mxGeometry width="50" height="50" relative="1" as="geometry">
                        <mxPoint x="1120" y="270" as="sourcePoint"/>
                        <mxPoint x="170" y="340" as="targetPoint"/>
                    </mxGeometry>
                </mxCell>
                <mxCell id="conn-config-services" value="Direct Load" style="endArrow=classic;html=1;strokeColor=#757575;strokeWidth=2;dashed=1;dashPattern=8 8;exitX=0.5;exitY=1;exitDx=0;exitDy=0;fontSize=9;entryX=0.5;entryY=0;entryDx=0;entryDy=0;" parent="1" source="config-container" edge="1" target="layer2-container">
                    <mxGeometry width="50" height="50" relative="1" as="geometry">
                        <mxPoint x="1340" y="270" as="sourcePoint"/>
                        <mxPoint x="760" y="380" as="targetPoint"/>
                        <Array as="points">
                            <mxPoint x="1410" y="340"/>
                            <mxPoint x="800" y="340"/>
                        </Array>
                    </mxGeometry>
                </mxCell>
                <mxCell id="conn-data-eventbus" value="Publish" style="endArrow=classic;html=1;strokeColor=#388E3C;strokeWidth=2;exitX=0.5;exitY=1;exitDx=0;exitDy=0;entryX=0.1;entryY=0;entryDx=0;entryDy=0;entryPerimeter=0;fontSize=9;" parent="1" source="service-data" target="eventbus" edge="1">
                    <mxGeometry width="50" height="50" relative="1" as="geometry">
                        <mxPoint x="170" y="720" as="sourcePoint"/>
                        <mxPoint x="216" y="760" as="targetPoint"/>
                    </mxGeometry>
                </mxCell>
                <mxCell id="conn-strategy-eventbus" value="Publish" style="endArrow=classic;html=1;strokeColor=#388E3C;strokeWidth=2;exitX=0.5;exitY=1;exitDx=0;exitDy=0;entryX=0.25;entryY=0;entryDx=0;entryDy=0;fontSize=9;" parent="1" source="service-strategy" target="eventbus" edge="1">
                    <mxGeometry width="50" height="50" relative="1" as="geometry">
                        <mxPoint x="390" y="720" as="sourcePoint"/>
                        <mxPoint x="460" y="760" as="targetPoint"/>
                    </mxGeometry>
                </mxCell>
                <mxCell id="conn-portfolio-eventbus" value="Publish" style="endArrow=classic;html=1;strokeColor=#388E3C;strokeWidth=2;exitX=0.5;exitY=1;exitDx=0;exitDy=0;entryX=0.42;entryY=0;entryDx=0;entryDy=0;entryPerimeter=0;fontSize=9;" parent="1" source="service-portfolio" target="eventbus" edge="1">
                    <mxGeometry width="50" height="50" relative="1" as="geometry">
                        <mxPoint x="610" y="720" as="sourcePoint"/>
                        <mxPoint x="691" y="760" as="targetPoint"/>
                    </mxGeometry>
                </mxCell>
                <mxCell id="conn-ledger-eventbus" value="Publish" style="endArrow=classic;html=1;strokeColor=#388E3C;strokeWidth=2;exitX=0.5;exitY=1;exitDx=0;exitDy=0;entryX=0.58;entryY=0;entryDx=0;entryDy=0;entryPerimeter=0;fontSize=9;" parent="1" source="service-ledger" target="eventbus" edge="1">
                    <mxGeometry width="50" height="50" relative="1" as="geometry">
                        <mxPoint x="830" y="720" as="sourcePoint"/>
                        <mxPoint x="909" y="760" as="targetPoint"/>
                    </mxGeometry>
                </mxCell>
                <mxCell id="conn-execution-eventbus" value="Publish" style="endArrow=classic;html=1;strokeColor=#388E3C;strokeWidth=2;exitX=0.5;exitY=1;exitDx=0;exitDy=0;entryX=0.75;entryY=0;entryDx=0;entryDy=0;fontSize=9;" parent="1" source="service-execution" target="eventbus" edge="1">
                    <mxGeometry width="50" height="50" relative="1" as="geometry">
                        <mxPoint x="1050" y="720" as="sourcePoint"/>
                        <mxPoint x="1140" y="760" as="targetPoint"/>
                    </mxGeometry>
                </mxCell>
                <mxCell id="conn-eventbus-reporting" value="Consume" style="endArrow=classic;html=1;strokeColor=#388E3C;strokeWidth=2;exitX=0.9;exitY=0;exitDx=0;exitDy=0;exitPerimeter=0;entryX=0.5;entryY=1;entryDx=0;entryDy=0;fontSize=9;" parent="1" source="eventbus" target="service-reporting" edge="1">
                    <mxGeometry width="50" height="50" relative="1" as="geometry">
                        <mxPoint x="1344" y="760" as="sourcePoint"/>
                        <mxPoint x="1270" y="720" as="targetPoint"/>
                    </mxGeometry>
                </mxCell>
                <mxCell id="conn-reporting-console" value="Direct Write" style="endArrow=classic;html=1;strokeColor=#757575;strokeWidth=2;dashed=1;dashPattern=8 8;exitX=0.25;exitY=1;exitDx=0;exitDy=0;entryX=0.5;entryY=0;entryDx=0;entryDy=0;fontSize=9;" parent="1" source="service-reporting" target="output-console" edge="1">
                    <mxGeometry width="50" height="50" relative="1" as="geometry">
                        <mxPoint x="1225" y="720" as="sourcePoint"/>
                        <mxPoint x="630" y="940" as="targetPoint"/>
                        <Array as="points">
                            <mxPoint x="1265" y="900"/>
                            <mxPoint x="670" y="900"/>
                        </Array>
                    </mxGeometry>
                </mxCell>
                <mxCell id="conn-reporting-json" value="Direct Write" style="endArrow=classic;html=1;strokeColor=#757575;strokeWidth=2;dashed=1;dashPattern=8 8;exitX=0.75;exitY=1;exitDx=0;exitDy=0;entryX=0.5;entryY=0;entryDx=0;entryDy=0;fontSize=9;" parent="1" source="service-reporting" target="output-json" edge="1">
                    <mxGeometry width="50" height="50" relative="1" as="geometry">
                        <mxPoint x="1315" y="720" as="sourcePoint"/>
                        <mxPoint x="890" y="940" as="targetPoint"/>
                        <Array as="points">
                            <mxPoint x="1315" y="900"/>
                            <mxPoint x="930" y="900"/>
                        </Array>
                    </mxGeometry>
                </mxCell>
                <mxCell id="conn-builtin-ind-abc" value="implements" style="endArrow=block;html=1;strokeColor=#F57F17;strokeWidth=1;dashed=1;dashPattern=4 4;exitX=1;exitY=0.5;exitDx=0;exitDy=0;entryX=0;entryY=0.25;entryDx=0;entryDy=0;fontSize=9;endFill=0;" parent="1" source="builtin-indicators" target="abc-indicator" edge="1">
                    <mxGeometry width="50" height="50" relative="1" as="geometry">
                        <mxPoint x="400" y="210" as="sourcePoint"/>
                        <mxPoint x="850" y="163" as="targetPoint"/>
                    </mxGeometry>
                </mxCell>
                <mxCell id="conn-custom-ind-abc" value="implements" style="endArrow=block;html=1;strokeColor=#F57F17;strokeWidth=1;dashed=1;dashPattern=4 4;exitX=1;exitY=0.5;exitDx=0;exitDy=0;entryX=0;entryY=0.75;entryDx=0;entryDy=0;fontSize=9;endFill=0;" parent="1" source="custom-indicators" target="abc-indicator" edge="1">
                    <mxGeometry width="50" height="50" relative="1" as="geometry">
                        <mxPoint x="760" y="210" as="sourcePoint"/>
                        <mxPoint x="850" y="175" as="targetPoint"/>
                    </mxGeometry>
                </mxCell>
                <mxCell id="conn-builtin-metric-abc" value="implements" style="endArrow=block;html=1;strokeColor=#F57F17;strokeWidth=1;dashed=1;dashPattern=4 4;exitX=1;exitY=0.5;exitDx=0;exitDy=0;entryX=0;entryY=0.25;entryDx=0;entryDy=0;fontSize=9;endFill=0;" parent="1" source="builtin-metrics" target="abc-metric" edge="1">
                    <mxGeometry width="50" height="50" relative="1" as="geometry">
                        <mxPoint x="400" y="250" as="sourcePoint"/>
                        <mxPoint x="850" y="223" as="targetPoint"/>
                    </mxGeometry>
                </mxCell>
                <mxCell id="conn-custom-metric-abc" value="implements" style="endArrow=block;html=1;strokeColor=#F57F17;strokeWidth=1;dashed=1;dashPattern=4 4;exitX=1;exitY=0.5;exitDx=0;exitDy=0;entryX=0;entryY=0.75;entryDx=0;entryDy=0;fontSize=9;endFill=0;" parent="1" source="custom-metrics" target="abc-metric" edge="1">
                    <mxGeometry width="50" height="50" relative="1" as="geometry">
                        <mxPoint x="760" y="250" as="sourcePoint"/>
                        <mxPoint x="850" y="235" as="targetPoint"/>
                    </mxGeometry>
                </mxCell>
            </root>
        </mxGraphModel>
    </diagram>
</mxfile>
